Coordinates
version=1
nRows=7
nColumns=33
inDegrees=yes

Units are S.I. units (second, meters, Newtons, ...)
Angles are in degrees.

endheader
time	ground_thorax_rot_x	ground_thorax_rot_y	ground_thorax_rot_z	ground_thorax_tx	ground_thorax_ty	ground_thorax_tz	clav_prot_r	clav_elev_r	scapula_abduction_r	scapula_elevation_r	scapula_upward_rot_r	scapula_winging_r	shoulder_elv_r	plane_of_elev_r	axial_rot_r	elbow_flexion_r	pro_sup_r	wrist_flex_r	wrist_dev_r	clav_prot_l	clav_elev_l	scapula_abduction_l	scapula_elevation_l	scapula_upward_rot_l	scapula_winging_l	shoulder_elv_l	plane_of_elev_l	axial_rot_l	elbow_flexion_l	pro_sup_l	wrist_flex_l	wrist_dev_l
      6.62000000	    -40.08402475	    -15.74404688	     10.23242787	    -99.65546969	    790.47299355	      4.83649039	      7.91888736	    -45.00000000	     33.82068066	    -45.00000000	    -41.27199162	  -1170.51140653	  -4254.40021103	     28.68726058	     84.26360253	   1449.24066032	    378.02404699	     17.15095753	     10.60785636	     17.79609297	     40.25837600	    -40.60271873	    -45.00000000	    -45.00000000	   1877.91151164	   1507.35369748	     24.09185816	    -26.16692426	    364.99074888	    373.13373046	     12.41643486	    -18.77690660
      6.63000000	    -40.13060801	    -15.83526174	     10.35939587	   -104.91138331	    791.33338411	      4.20927689	      7.91571224	    -45.00000000	     33.57446954	    -45.00000000	    -42.39818183	  -1170.77673765	  -4254.12979155	     28.65520438	     84.12058839	   1449.24059883	    379.16609234	     17.21335296	     10.56095859	     17.60641723	     40.19679428	    -40.36536112	    -45.00000000	    -45.00000000	   1878.29947580	   1507.42075114	     23.90819677	    -27.05626969	    365.11813430	    373.74401751	     12.21047547	    -18.85834468
      6.64000000	    -40.19644709	    -15.86180950	     10.31433306	   -110.31077414	    792.34728943	      3.57648374	      8.07034233	    -45.00000000	     33.28123734	    -45.00000000	    -43.20061410	  -1171.08116526	  -4253.83460537	     28.71110750	     84.18201661	   1449.36882815	    380.33099161	     17.29714562	     10.58772220	     17.48867875	     40.11015317	    -40.09558606	    -45.00000000	    -45.00000000	   1878.54914243	   1507.61996939	     23.56606121	    -28.03663785	    365.34692896	    374.39312885	     11.99774556	    -18.96223912
      6.65000000	    -40.23661095	    -15.86037054	     10.30790359	   -115.81376775	    793.50417077	      2.94168776	      8.17042154	    -45.00000000	     33.08301277	    -45.00000000	    -44.05009762	  -1171.43262974	  -4253.56192326	     28.77043701	     84.46310465	   1449.51782717	    381.48189188	     17.36591084	     10.47925405	     17.33963910	     40.00903849	    -39.80729019	    -45.00000000	    -45.00000000	   1878.81773473	   1507.73462033	     23.32444113	    -29.00894450	    365.52560537	    375.08810333	     11.87636442	    -19.06475419
      6.66000000	    -40.22741999	    -15.98155190	     10.45556962	   -121.40238816	    794.81837215	      2.31487705	      8.73457288	    -45.00000000	     32.95861281	    -45.00000000	    -43.74156373	  -1172.36840969	  -4253.78720679	     28.63913534	     87.55384727	   1449.65911984	    382.62689843	     17.30387025	     10.06676724	     17.73299353	     39.60791669	    -39.52328693	    -45.00000000	    -45.00000000	   1878.91546721	   1508.03574615	     22.70073023	    -30.73265900	    365.71635572	    375.77983682	     11.63946134	    -19.07601547
      6.67000000	    -40.34779139	    -15.89751008	     10.28091334	   -127.04421019	    796.29722773	      1.70018953	      8.42160177	    -45.00000000	     32.79612839	    -45.00000000	    -45.00000000	  -1172.37547994	  -4253.26923301	     28.69837976	     86.21890364	   1449.83447317	    383.52244975	     17.42284413	      9.96582043	     17.11246194	     39.91631028	    -39.30301029	    -45.00000000	    -45.00000000	   1879.53893724	   1507.91658683	     22.72781025	    -31.15203262	    365.92910556	    376.49428323	     11.66741433	    -19.28251824
      6.68000000	    -40.31964092	    -15.92558538	     10.39550541	   -132.70711244	    797.92471278	      1.09914343	      8.93554381	    -45.00000000	     32.74929701	    -45.00000000	    -45.00000000	  -1173.15575442	  -4253.35176872	     28.65702630	     88.86232299	   1449.89170283	    384.64839879	     17.41158579	      9.82622860	     17.38328091	     39.42426130	    -38.83659958	    -45.00000000	    -45.00000000	   1879.64889406	   1508.21928857	     22.30867180	    -32.55785609	    366.32165381	    377.23237798	     11.43554753	    -19.37205689
